<svg width="43" height="43" viewBox="0 0 43 43" fill="none" xmlns="http://www.w3.org/2000/svg">
<path d="M34.4663 11.1746C35.7996 12.5091 36.5684 14.3054 36.6134 16.1913C36.6585 18.0772 35.9762 19.9081 34.7081 21.3047L21.4982 35.8351L8.2936 21.3047C7.62337 20.5785 7.10664 19.7244 6.77439 18.7937C6.44214 17.863 6.30119 16.8747 6.36 15.8883C6.4188 14.9018 6.67615 13.9373 7.11662 13.0526C7.55709 12.168 8.17162 11.3814 8.92338 10.7399C9.67514 10.0984 10.5487 9.61532 11.4916 9.31952C12.4345 9.02372 13.4275 8.92133 14.4109 9.01847C15.3944 9.1156 16.3481 9.41028 17.215 9.88483C18.0818 10.3594 18.8439 11.004 19.4557 11.7802L21.5 14.3333L23.5425 11.7802C24.1878 10.9745 24.9958 10.3139 25.9136 9.84144C26.8314 9.36896 27.8384 9.09523 28.8691 9.03809C29.8998 8.98095 30.931 9.14169 31.8954 9.50982C32.8598 9.87795 33.7358 10.4452 34.4663 11.1746Z" stroke="black" stroke-width="2" stroke-linecap="round" stroke-linejoin="round"/>
</svg>
