<svg width="39" height="39" viewBox="0 0 39 39" fill="none" xmlns="http://www.w3.org/2000/svg">
<path d="M11.375 29.25C9.5875 29.25 8.14125 30.7125 8.14125 32.5C8.14125 34.2875 9.5875 35.75 11.375 35.75C13.1625 35.75 14.625 34.2875 14.625 32.5C14.625 30.7125 13.1625 29.25 11.375 29.25ZM1.625 3.25V6.5H4.875L10.725 18.8338L8.53125 22.815C8.27125 23.27 8.125 23.8063 8.125 24.375C8.125 26.1625 9.5875 27.625 11.375 27.625H30.875V24.375H12.0575C11.83 24.375 11.6512 24.1963 11.6512 23.9688L11.7 23.7738L13.1625 21.125H25.2687C26.4875 21.125 27.56 20.4588 28.1125 19.4513L33.93 8.905C34.0641 8.657 34.1315 8.37847 34.1258 8.09661C34.12 7.81475 34.0413 7.5392 33.8972 7.29688C33.7531 7.05456 33.5486 6.85376 33.3037 6.71409C33.0588 6.57441 32.7819 6.50065 32.5 6.5H8.46625L6.93875 3.25H1.625ZM27.625 29.25C25.8375 29.25 24.3912 30.7125 24.3912 32.5C24.3912 34.2875 25.8375 35.75 27.625 35.75C29.4125 35.75 30.875 34.2875 30.875 32.5C30.875 30.7125 29.4125 29.25 27.625 29.25Z" fill="black"/>
</svg>
