<svg width="43" height="43" viewBox="0 0 43 43" fill="none" xmlns="http://www.w3.org/2000/svg">
<path d="M21.5 10.5709C21.9941 10.5709 22.4834 10.6682 22.9399 10.8573C23.3964 11.0463 23.8111 11.3235 24.1605 11.6729C24.5099 12.0222 24.787 12.437 24.9761 12.8935C25.1652 13.35 25.2625 13.8393 25.2625 14.3334C25.2625 14.8275 25.1652 15.3167 24.9761 15.7732C24.787 16.2297 24.5099 16.6445 24.1605 16.9938C23.8111 17.3432 23.3964 17.6204 22.9399 17.8095C22.4834 17.9985 21.9941 18.0959 21.5 18.0959C20.5021 18.0959 19.5451 17.6994 18.8395 16.9938C18.1339 16.2882 17.7375 15.3312 17.7375 14.3334C17.7375 13.3355 18.1339 12.3785 18.8395 11.6729C19.5451 10.9673 20.5021 10.5709 21.5 10.5709ZM21.5 26.6959C26.8213 26.6959 32.4292 29.3117 32.4292 30.4584V32.4292H10.5709V30.4584C10.5709 29.3117 16.1788 26.6959 21.5 26.6959ZM21.5 7.16669C17.5404 7.16669 14.3334 10.3738 14.3334 14.3334C14.3334 18.2929 17.5404 21.5 21.5 21.5C25.4596 21.5 28.6667 18.2929 28.6667 14.3334C28.6667 10.3738 25.4596 7.16669 21.5 7.16669ZM21.5 23.2917C16.7163 23.2917 7.16669 25.6925 7.16669 30.4584V35.8334H35.8334V30.4584C35.8334 25.6925 26.2838 23.2917 21.5 23.2917Z" fill="black"/>
</svg>
