<svg width="34" height="34" viewBox="0 0 34 34" fill="none" xmlns="http://www.w3.org/2000/svg">
<path d="M16.9858 2.83331C9.16581 2.83331 2.83331 9.17998 2.83331 17C2.83331 24.82 9.16581 31.1666 16.9858 31.1666C24.82 31.1666 31.1666 24.82 31.1666 17C31.1666 9.17998 24.82 2.83331 16.9858 2.83331ZM26.8033 11.3333H22.6241C22.1801 9.57893 21.5236 7.88529 20.6691 6.28998C23.2533 7.17965 25.4308 8.96992 26.8033 11.3333ZM17 5.72331C18.1758 7.42331 19.0966 9.30748 19.7058 11.3333H14.2941C14.9033 9.30748 15.8241 7.42331 17 5.72331ZM6.03498 19.8333C5.80831 18.9266 5.66665 17.9775 5.66665 17C5.66665 16.0225 5.80831 15.0733 6.03498 14.1666H10.8233C10.71 15.1016 10.625 16.0366 10.625 17C10.625 17.9633 10.71 18.8983 10.8233 19.8333H6.03498ZM7.19665 22.6666H11.3758C11.8291 24.4375 12.4808 26.1375 13.3308 27.71C10.7448 26.8237 8.5662 25.0325 7.19665 22.6666ZM11.3758 11.3333H7.19665C8.5662 8.96741 10.7448 7.17626 13.3308 6.28998C12.4764 7.88529 11.8199 9.57893 11.3758 11.3333ZM17 28.2766C15.8241 26.5766 14.9033 24.6925 14.2941 22.6666H19.7058C19.0966 24.6925 18.1758 26.5766 17 28.2766ZM20.315 19.8333H13.685C13.5575 18.8983 13.4583 17.9633 13.4583 17C13.4583 16.0366 13.5575 15.0875 13.685 14.1666H20.315C20.4425 15.0875 20.5416 16.0366 20.5416 17C20.5416 17.9633 20.4425 18.8983 20.315 19.8333ZM20.6691 27.71C21.5191 26.1375 22.1708 24.4375 22.6241 22.6666H26.8033C25.4308 25.03 23.2533 26.8203 20.6691 27.71ZM23.1766 19.8333C23.29 18.8983 23.375 17.9633 23.375 17C23.375 16.0366 23.29 15.1016 23.1766 14.1666H27.965C28.1916 15.0733 28.3333 16.0225 28.3333 17C28.3333 17.9775 28.1916 18.9266 27.965 19.8333H23.1766Z" fill="black"/>
</svg>
