<svg width="27" height="31" viewBox="0 0 27 31" fill="none" xmlns="http://www.w3.org/2000/svg">
<path d="M20.0095 11.1622C21.9795 12.5888 24.3928 13.4281 26.9992 13.4281V8.34731C26.5059 8.34751 26.0139 8.29535 25.5313 8.19167V12.191C22.9251 12.191 20.5121 11.3517 18.5417 9.92532V20.2939C18.5417 25.4808 14.3909 29.6853 9.27099 29.6853C7.36064 29.6853 5.58497 29.1002 4.10999 28.0968C5.79348 29.8406 8.14121 30.9223 10.7385 30.9223C15.8588 30.9223 20.0097 26.7178 20.0097 21.5307V11.1622H20.0095ZM21.8204 6.03632C20.8136 4.92214 20.1525 3.48224 20.0095 1.89034V1.23688H18.6185C18.9686 3.26011 20.1631 4.98863 21.8204 6.03632ZM7.3483 24.1166C6.78577 23.3696 6.48171 22.4555 6.48314 21.5158C6.48314 19.1435 8.38168 17.22 10.724 17.22C11.1605 17.2198 11.5944 17.2877 12.0104 17.4213V12.2269C11.5242 12.1595 11.0336 12.1307 10.5432 12.1413V16.1843C10.1269 16.0507 9.69278 15.9828 9.25612 15.9832C6.91387 15.9832 5.01543 17.9064 5.01543 20.279C5.01543 21.9566 5.96434 23.409 7.3483 24.1166Z" fill="#FF004F"/>
<path d="M18.5417 9.92521C20.5122 11.3516 22.925 12.1909 25.5314 12.1909V8.19157C24.0765 7.87761 22.7887 7.10753 21.8204 6.03632C20.1629 4.98852 18.9687 3.26 18.6185 1.23688H14.9648V21.5304C14.9564 23.8963 13.0612 25.8119 10.7239 25.8119C9.34667 25.8119 8.12302 25.1469 7.34814 24.1165C5.96439 23.409 5.01538 21.9565 5.01538 20.2791C5.01538 17.9068 6.91382 15.9833 9.25607 15.9833C9.70484 15.9833 10.1374 16.054 10.5431 16.1844V12.1414C5.51309 12.2467 1.46783 16.4101 1.46783 21.5305C1.46783 24.0867 2.47517 26.4039 4.11014 28.097C5.58512 29.1002 7.36069 29.6855 9.27115 29.6855C14.3911 29.6855 18.5419 25.4807 18.5419 20.2939L18.5417 9.92521Z" fill="black"/>
<path d="M25.5313 8.19148V7.11033C24.2194 7.11226 22.9334 6.74009 21.8203 6.03634C22.8056 7.12905 24.103 7.88258 25.5313 8.1917M18.6184 1.23679C18.585 1.04348 18.5594 0.848874 18.5416 0.653459V0H13.4966V20.2938C13.4886 22.6594 11.5933 24.575 9.25594 24.575C8.5933 24.576 7.93973 24.419 7.34801 24.1167C8.12289 25.1469 9.34654 25.8118 10.7237 25.8118C13.0609 25.8118 14.9564 23.8964 14.9646 21.5306V1.2369L18.6184 1.23679ZM10.5433 12.1413V10.9901C10.1217 10.9318 9.69672 10.9026 9.27123 10.9027C4.15072 10.9027 0 15.1074 0 20.2938C0 23.5455 1.63129 26.4111 4.11022 28.0968C2.47525 26.4038 1.46791 24.0865 1.46791 21.5305C1.46791 16.4101 5.51306 12.2466 10.5433 12.1413Z" fill="#00F2EA"/>
</svg>
